HIERARCHY
ROOT Hips
{
	OFFSET 0.00000 0.00000 0.00000
	CHANNELS 6 Xposition Yposition Zposition Zrotation Yrotation Xrotation 
	JOINT LHipJoint
	{
		OFFSET 0 0 0
		CHANNELS 3 Zrotation Yrotation Xrotation
		JOINT LeftUpLeg
		{
			OFFSET 1.28858 -1.83292 1.03970
			CHANNELS 3 Zrotation Yrotation Xrotation
			JOINT LeftLeg
			{
				OFFSET 2.47846 -6.80952 0.00000
				CHANNELS 3 Zrotation Yrotation Xrotation
				JOINT LeftFoot
				{
					OFFSET 2.75274 -7.56311 0.00000
					CHANNELS 3 Zrotation Yrotation Xrotation
					JOINT LeftToeBase
					{
						OFFSET 0.12848 -0.35301 1.68223
						CHANNELS 3 Zrotation Yrotation Xrotation
						End Site
						{
							OFFSET 0.00000 -0.00000 0.87311
						}
					}
				}
			}
		}
	}
	JOINT RHipJoint
	{
		OFFSET 0 0 0
		CHANNELS 3 Zrotation Yrotation Xrotation
		JOINT RightUpLeg
		{
			OFFSET -1.31183 -1.83292 1.03970
			CHANNELS 3 Zrotation Yrotation Xrotation
			JOINT RightLeg
			{
				OFFSET -2.44740 -6.72417 0.00000
				CHANNELS 3 Zrotation Yrotation Xrotation
				JOINT RightFoot
				{
					OFFSET -2.67343 -7.34519 0.00000
					CHANNELS 3 Zrotation Yrotation Xrotation
					JOINT RightToeBase
					{
						OFFSET -0.16914 -0.46471 1.77626
						CHANNELS 3 Zrotation Yrotation Xrotation
						End Site
						{
							OFFSET -0.00000 -0.00000 0.92777
						}
					}
				}
			}
		}
	}
	JOINT LowerBack
	{
		OFFSET 0 0 0
		CHANNELS 3 Zrotation Yrotation Xrotation
		JOINT Spine
		{
			OFFSET 0.01249 2.14252 0.03842
			CHANNELS 3 Zrotation Yrotation Xrotation
			JOINT Spine1
			{
				OFFSET -0.02957 2.14199 -0.03751
				CHANNELS 3 Zrotation Yrotation Xrotation
				JOINT Neck
				{
					OFFSET 0 0 0
					CHANNELS 3 Zrotation Yrotation Xrotation
					JOINT Neck1
					{
						OFFSET -0.01678 1.65709 -0.05476
						CHANNELS 3 Zrotation Yrotation Xrotation
						JOINT Head
						{
							OFFSET 0.07912 1.58331 -0.11843
							CHANNELS 3 Zrotation Yrotation Xrotation
							End Site
							{
								OFFSET 0.03298 1.73940 -0.04271
							}
						}
					}
				}
				JOINT LeftShoulder
				{
					OFFSET 0 0 0
					CHANNELS 3 Zrotation Yrotation Xrotation
					JOINT LeftArm
					{
						OFFSET 3.39556 1.16496 0.08673
						CHANNELS 3 Zrotation Yrotation Xrotation
						JOINT LeftForeArm
						{
							OFFSET 5.23910 -0.00000 -0.00000
							CHANNELS 3 Zrotation Yrotation Xrotation
							JOINT LeftHand
							{
								OFFSET 3.31467 -0.00000 0.00000
								CHANNELS 3 Zrotation Yrotation Xrotation
								JOINT LeftFingerBase
								{
									OFFSET 0 0 0
									CHANNELS 3 Zrotation Yrotation Xrotation
									JOINT LeftHandIndex1
									{
										OFFSET 0.96590 -0.00000 0.00000
										CHANNELS 3 Zrotation Yrotation Xrotation
										End Site
										{
											OFFSET 0.77873 -0.00000 0.00000
										}
									}
								}
								JOINT LThumb
								{
									OFFSET 0 0 0
									CHANNELS 3 Zrotation Yrotation Xrotation
									End Site
									{
										OFFSET 0.79062 -0.00000 0.79062
									}
								}
							}
						}
					}
				}
				JOINT RightShoulder
				{
					OFFSET 0 0 0
					CHANNELS 3 Zrotation Yrotation Xrotation
					JOINT RightArm
					{
						OFFSET -3.27193 1.31331 0.33940
						CHANNELS 3 Zrotation Yrotation Xrotation
						JOINT RightForeArm
						{
							OFFSET -5.30252 -0.00000 0.00000
							CHANNELS 3 Zrotation Yrotation Xrotation
							JOINT RightHand
							{
								OFFSET -3.67875 -0.00000 0.00000
								CHANNELS 3 Zrotation Yrotation Xrotation
								JOINT RightFingerBase
								{
									OFFSET 0 0 0
									CHANNELS 3 Zrotation Yrotation Xrotation
									JOINT RightHandIndex1
									{
										OFFSET -0.59481 -0.00000 0.00000
										CHANNELS 3 Zrotation Yrotation Xrotation
										End Site
										{
											OFFSET -0.47955 -0.00000 0.00000
										}
									}
								}
								JOINT RThumb
								{
									OFFSET 0 0 0
									CHANNELS 3 Zrotation Yrotation Xrotation
									End Site
									{
										OFFSET -0.48687 -0.00000 0.48687
									}
								}
							}
						}
					}
				}
			}
		}
	}
}
MOTION
Frames: 14
Frame Time: .0083333
11.0640 1.6789 -4.3873 -192.3430 -3.7767 89.7201 0.0000 0.0000 0.0000 -8.8583 -4.4150 -108.3921 4.6509 12.9795 39.2917 40.0339 5.6110 177.1842 6.3992 14.8043 46.5634 0.0000 0.0000 0.0000 2.4277 27.8388 -109.5011 -5.0751 -13.4678 41.1460 -40.0254 6.3409 171.6551 -0.0327 -1.1673 3.2091 -5.9424 2.0858 13.3009 -4.0255 5.4709 15.3914 -1.0842 3.8690 9.3010 -3.1180 -1.5785 -2.7825 2.1118 -1.0124 21.1445 1.2153 0.0579 6.9303 -0.0000 0.0000 0.0000 -51.6809 -52.6656 54.1950 19.8412 -30.4505 -5.4506 -0.0000 -0.0000 6.4553 33.5860 -13.6788 -8.9244 -7.1250 0.0000 -0.0000 4.1781 13.7253 -3.0758 -0.0000 0.0000 0.0000 72.5086 46.8202 35.7680 -30.7736 41.5473 -11.9194 0.0000 -0.0000 -5.9988 -22.1398 -33.9950 12.8160 7.1250 -0.0000 -0.0000 13.8685 -65.5344 -6.9398
11.0566 1.6930 -4.4527 -191.8790 -5.1478 91.3665 0.0000 0.0000 0.0000 -11.6730 -5.0451 -105.4557 4.4660 12.7559 38.4616 39.9712 5.8046 175.1512 2.7638 10.3024 29.9617 0.0000 0.0000 0.0000 1.5227 26.6164 -107.3441 -4.5991 -12.9176 39.0609 -40.0652 7.2373 171.3501 -0.2177 -3.0034 8.2883 -8.0819 1.9325 13.7052 -4.4624 5.2996 15.4768 -0.3921 3.6904 9.1619 -2.3725 -1.5408 -2.6673 1.4723 -0.8295 21.6239 0.9026 0.1873 7.0544 -0.0000 0.0000 0.0000 -53.1675 -51.5087 56.8046 18.2698 -28.5013 -4.6773 -0.0000 -0.0000 6.0310 30.6839 -13.0438 -7.6278 -7.1250 0.0000 -0.0000 2.2932 14.9114 -1.6272 -0.0000 0.0000 0.0000 74.8716 45.6287 37.1686 -28.7251 39.7753 -10.5844 0.0000 -0.0000 -6.9584 -20.0918 -33.9652 11.5500 7.1250 -0.0000 -0.0000 16.2735 -64.9323 -7.9438
11.0501 1.7106 -4.5206 -191.5100 -6.4494 93.0735 0.0000 0.0000 0.0000 -14.2431 -5.6186 -102.7370 4.3083 12.5597 37.7421 39.9673 4.9613 175.5166 2.8447 10.4393 30.4113 0.0000 0.0000 0.0000 -1.7609 24.9211 -105.1732 -4.9233 -13.2969 40.4904 -40.0922 6.9836 172.7064 -5.8423 -14.2737 44.3454 -9.6157 2.0841 14.3327 -4.6228 5.6736 15.8522 0.2317 3.8820 9.2547 -2.8001 -1.9716 -3.4535 1.4514 -1.3419 22.1430 0.9351 -0.0861 7.3798 -0.0000 -0.0000 0.0000 -55.4927 -51.6466 60.3547 17.1311 -27.0302 -4.1467 -0.0000 -0.0000 5.4937 30.8342 -13.7943 -8.1005 -7.1250 0.0000 -0.0000 2.3137 14.0322 -1.6851 -0.0000 -0.0000 0.0000 73.6010 44.4966 37.4231 -26.8968 38.0806 -9.4354 0.0000 -0.0000 -10.4583 -19.8587 -33.5358 11.2844 7.1250 -0.0000 -0.0000 16.1537 -64.4578 -7.7061
11.0458 1.7306 -4.5965 -191.3220 -7.5657 95.1136 0.0000 0.0000 0.0000 -16.1309 -6.0935 -100.3821 4.3162 12.5696 37.7782 39.9780 4.1304 176.2892 3.1625 10.9536 32.1237 0.0000 0.0000 0.0000 -2.1449 24.2380 -103.7762 -4.4025 -12.6775 38.1730 -40.2453 9.1014 173.9551 -4.6231 -12.9463 39.1678 -11.2162 2.0560 14.8103 -4.9967 5.7624 16.0522 0.6733 3.9163 9.2709 -2.4295 -2.0292 -4.3699 1.3401 -1.4297 22.5391 0.8280 -0.1132 7.6719 -0.0000 -0.0000 0.0000 -56.4854 -51.0118 62.0368 16.4003 -26.0604 -3.8201 -0.0000 -0.0000 4.8057 29.4544 -13.2960 -7.3999 -7.1250 0.0000 -0.0000 1.4307 14.7995 -1.0181 -0.0000 -0.0000 0.0000 74.5246 43.2418 37.4671 -26.1808 37.3866 -8.9972 0.0000 -0.0000 -11.5176 -18.9723 -33.4280 10.7242 7.1250 -0.0000 -0.0000 17.0790 -64.1131 -8.0227
11.0355 1.7543 -4.6851 -191.3250 -8.3896 97.6371 0.0000 0.0000 0.0000 -17.9523 -6.7765 -98.9746 4.0616 12.2419 36.5933 39.9566 4.2682 175.5422 1.5223 7.7908 22.0804 0.0000 0.0000 0.0000 -2.6740 23.6945 -103.2632 -3.8895 -12.0119 35.7740 -40.2722 9.8083 172.7756 -4.9515 -13.3289 40.6125 -12.9831 1.7405 14.8827 -5.3317 5.3518 16.0642 1.2940 3.6079 9.3252 -2.0140 -1.6151 -5.0195 1.1258 -0.8900 22.5105 0.7249 0.1322 7.7641 -0.0000 0.0000 0.0000 -56.4654 -49.5089 61.5318 15.8706 -25.3449 -3.5904 -0.0000 -0.0000 3.9944 27.9307 -12.7981 -6.6981 -7.1250 0.0000 -0.0000 0.4350 15.5609 -0.3024 -0.0000 0.0000 0.0000 76.3241 42.3415 38.4217 -25.7270 36.9378 -8.7230 0.0000 -0.0000 -10.8803 -17.8896 -33.1543 10.0115 7.1250 -0.0000 -0.0000 18.0658 -63.5647 -8.2695
11.0191 1.7780 -4.7853 -191.4470 -8.8205 100.5990 0.0000 0.0000 0.0000 -18.7938 -7.5312 -98.2593 3.9958 12.1548 36.2817 39.9723 4.2067 176.0591 2.3995 9.6528 27.8595 0.0000 0.0000 0.0000 -3.0789 23.2699 -103.3901 -3.3379 -11.2229 33.0354 -40.1992 9.4426 171.0014 -6.2943 -14.7076 46.1517 -14.1575 1.5116 14.7445 -5.5509 5.0215 15.8953 1.7138 3.3518 9.2686 -1.6686 -1.3446 -5.0045 0.9737 -0.6069 21.7747 0.6285 0.2361 7.5098 -0.0000 -0.0000 0.0000 -56.4927 -48.1605 61.4416 15.5809 -24.9492 -3.4673 -0.0000 -0.0000 2.8127 29.8116 -12.8774 -7.2771 -7.1250 0.0000 -0.0000 1.7156 15.2237 -1.2055 -0.0000 -0.0000 0.0000 77.1910 41.2802 39.1954 -25.1347 36.3414 -8.3696 0.0000 -0.0000 -9.5704 -17.5321 -32.6481 9.6720 7.1250 -0.0000 -0.0000 18.0229 -62.9930 -8.0078
11.0081 1.7994 -4.8862 -191.4550 -8.8173 103.6650 0.0000 0.0000 0.0000 -19.2849 -8.3732 -98.0537 3.8289 11.9292 35.4821 39.9617 3.6846 175.9510 2.2108 9.2920 26.7131 0.0000 0.0000 0.0000 -3.9751 22.8300 -103.9759 -3.2155 -11.0360 32.4012 -40.2530 10.0261 171.3445 -7.2589 -15.5461 49.8467 -14.7054 1.3506 14.7596 -5.6250 4.7538 15.6884 1.9369 3.1744 9.0568 -1.8103 -1.2074 -4.5933 1.3767 -0.5971 20.5040 0.7690 0.2035 7.0214 0.0000 -0.0000 0.0000 -56.5923 -47.1065 61.5640 15.4635 -24.7879 -3.4179 -0.0000 -0.0000 1.6637 29.6158 -13.0210 -7.2984 -7.1250 0.0000 -0.0000 1.5678 15.0878 -1.1060 0.0000 -0.0000 0.0000 77.2691 40.0917 39.7117 -24.5419 35.7320 -8.0208 0.0000 -0.0000 -8.0070 -17.2035 -32.1323 9.3515 7.1250 -0.0000 -0.0000 17.9517 -62.4209 -7.7334
10.9982 1.8183 -4.9733 -191.2590 -8.3977 106.3150 0.0000 0.0000 0.0000 -19.1506 -9.0873 -97.5447 3.7354 11.7997 35.0270 39.9632 3.7275 175.9827 2.3671 9.5921 27.6656 0.0000 0.0000 0.0000 -4.0977 22.5433 -103.8091 -3.1798 -10.9805 32.2143 -40.2277 9.7509 171.1896 -7.8472 -16.0057 52.0105 -14.7045 1.1790 15.4320 -5.6578 4.4526 15.6101 1.8829 3.0745 8.6425 -2.1009 -1.0860 -4.1783 2.1252 -0.6544 19.1155 1.0378 0.1508 6.5041 0.0000 0.0000 0.0000 -56.3665 -46.3206 61.2032 15.4262 -24.7364 -3.4023 -0.0000 -0.0000 0.6949 28.5032 -13.2359 -7.0873 -7.1250 0.0000 -0.0000 0.7882 14.9970 -0.5575 0.0000 0.0000 0.0000 77.0829 39.0810 40.1992 -24.0985 35.2683 -7.7634 0.0000 -0.0000 -6.8427 -16.7270 -31.3163 8.8781 7.1250 -0.0000 -0.0000 17.8148 -61.5279 -7.2961
10.9776 1.8348 -5.0451 -191.0230 -7.4872 108.5810 0.0000 0.0000 0.0000 -18.4939 -9.5682 -96.9022 3.7024 11.7535 34.8656 39.9670 3.7506 176.1008 2.7345 10.2524 29.7980 0.0000 0.0000 0.0000 -3.6091 22.5666 -103.1180 -3.2310 -11.0599 32.4823 -40.2956 10.4641 171.6740 -8.1369 -16.2190 53.0543 -14.0527 1.0542 16.8429 -5.6487 4.1242 15.4821 1.4864 3.0503 7.7565 -2.1087 -1.0629 -3.8967 2.4517 -0.7414 18.2561 1.1273 0.0947 6.1837 0.0000 0.0000 0.0000 -56.1427 -45.6177 60.5932 15.3177 -24.5868 -3.3570 -0.0000 -0.0000 0.4839 27.5880 -13.6400 -7.0246 -7.1250 0.0000 -0.0000 0.1283 14.6679 -0.0916 0.0000 0.0000 0.0000 76.8802 38.1151 40.7384 -23.7187 34.8653 -7.5451 0.0000 -0.0000 -6.1556 -16.6792 -30.7078 8.6990 7.1250 -0.0000 -0.0000 17.3966 -60.9366 -6.8744
10.9571 1.8533 -5.1046 -190.6000 -6.0810 110.5880 0.0000 0.0000 0.0000 -17.3011 -9.8352 -96.1768 3.7058 11.7582 34.8819 39.9790 3.7650 176.5184 3.0207 10.7285 31.3695 0.0000 0.0000 0.0000 -2.3401 22.8017 -102.1332 -3.2538 -11.0949 32.6008 -40.2540 9.9862 171.4885 -9.1613 -16.9104 56.6464 -12.8697 0.9728 18.7965 -5.4858 3.8319 15.3347 0.9382 3.0887 6.5478 -1.6923 -1.2499 -4.0006 2.0884 -1.0201 17.8710 0.9195 -0.0642 6.0825 -0.0000 -0.0000 0.0000 -56.0636 -45.1434 59.9152 15.0911 -24.2728 -3.2633 -0.0000 -0.0000 1.0603 27.0839 -14.3317 -7.2143 -7.1250 0.0000 -0.0000 -0.2740 13.9692 0.1997 -0.0000 -0.0000 0.0000 76.6973 37.2990 40.9788 -23.2577 34.3694 -7.2833 0.0000 -0.0000 -5.6914 -16.8149 -30.5909 8.7431 7.1250 -0.0000 -0.0000 17.1617 -60.8585 -6.7465
10.9532 1.8989 -5.1087 -187.2200 1.9406 113.5170 0.0000 0.0000 0.0000 -8.3165 -8.8109 -97.8864 3.4692 11.4185 33.7045 39.9889 4.0532 176.7257 3.2391 11.0724 32.5243 0.0000 0.0000 0.0000 6.3994 24.8447 -100.4513 -3.8043 -11.8954 35.3628 -40.2782 10.2381 171.6732 -9.0052 -16.8110 56.1079 -4.5779 0.2795 20.1753 -3.5251 3.3406 15.1567 -1.5524 3.2191 5.4279 -1.6390 -1.3097 -3.7632 2.3553 -1.2478 16.5792 0.9696 -0.2127 5.6407 0.0000 0.0000 0.0000 -55.6475 -45.1537 59.0257 14.8318 -23.9112 -3.1574 -0.0000 -0.0000 1.6520 26.8943 -14.9840 -7.4710 -7.1250 0.0000 -0.0000 -0.4594 13.2754 0.3416 0.0000 0.0000 0.0000 76.4782 37.0416 40.9756 -22.7336 33.7962 -6.9895 0.0000 -0.0000 -5.5792 -16.9303 -30.6372 8.8176 7.1250 -0.0000 -0.0000 17.0709 -60.9308 -6.7390
10.9380 1.9547 -5.1514 -184.4560 5.4416 115.5610 0.0000 0.0000 0.0000 -3.8538 -9.2240 -97.3274 3.4958 11.4574 33.8386 40.0128 3.1973 178.5174 6.0807 14.5061 45.3047 0.0000 0.0000 0.0000 10.7884 24.7873 -98.5901 -4.1807 -12.3971 37.1515 -40.3093 10.0586 173.8893 -8.4507 -16.4409 54.1702 -0.5864 -0.6135 22.3842 -2.5863 2.7600 15.2111 -2.8149 3.2258 4.3970 -1.6870 -1.3516 -4.0450 2.4948 -1.3721 16.1113 1.0084 -0.2964 5.5468 -0.0000 -0.0000 0.0000 -54.9155 -45.2272 58.0491 14.5790 -23.5563 -3.0557 -0.0000 -0.0000 2.0764 26.8639 -15.2039 -7.5670 -7.1250 0.0000 -0.0000 -0.4995 13.0376 0.3739 -0.0000 -0.0000 0.0000 76.1765 37.0713 41.2781 -22.1876 33.1884 -6.6883 0.0000 -0.0000 -6.2688 -17.0993 -30.9407 8.9878 7.1250 -0.0000 -0.0000 17.1158 -61.2617 -6.8920
10.9442 2.0327 -5.2419 -185.6930 2.9457 116.8770 0.0000 0.0000 0.0000 -7.0422 -9.7844 -95.3424 3.8132 11.9076 35.4058 40.0172 3.5375 178.4498 6.0525 14.4791 45.1922 0.0000 0.0000 0.0000 8.0087 24.5369 -97.8904 -4.1628 -12.3739 37.0678 -40.2108 8.5102 174.1288 -8.4887 -16.4672 54.3045 -4.2161 -0.2598 24.1838 -3.3230 2.9091 15.4039 -1.6725 3.2509 3.7614 -1.9448 -1.3883 -4.3610 2.7575 -1.4420 16.1963 1.1283 -0.3306 5.6328 -0.0000 -0.0000 0.0000 -54.1858 -45.2675 57.1096 14.3208 -23.1914 -2.9533 -0.0000 -0.0000 2.4840 27.0362 -15.2298 -7.6354 -7.1250 0.0000 -0.0000 -0.3863 12.9845 0.2896 -0.0000 -0.0000 0.0000 75.7242 37.0463 41.6931 -21.6880 32.6226 -6.4168 0.0000 -0.0000 -7.4367 -17.1543 -30.9431 9.0187 7.1250 -0.0000 -0.0000 17.0575 -61.2779 -6.8743
10.9320 2.1136 -5.3169 -185.7810 2.4597 118.6190 0.0000 0.0000 0.0000 -7.7333 -10.3163 -94.0864 4.1076 12.3022 36.8096 40.0158 3.2903 178.6227 6.5810 14.9687 47.2712 0.0000 0.0000 0.0000 7.4019 24.3959 -97.1322 -4.5178 -12.8193 38.6957 -40.2748 9.5764 173.8230 -8.6668 -16.5885 54.9305 -5.1780 -0.2712 25.8696 -3.5549 2.8875 15.5238 -1.4634 3.3189 3.1330 -1.8741 -1.4919 -4.5944 2.5905 -1.5968 15.9319 1.0509 -0.4324 5.5925 -0.0000 -0.0000 0.0000 -53.4580 -45.6271 56.0285 14.0406 -22.7928 -2.8438 -0.0000 -0.0000 2.7413 27.2018 -15.3079 -7.7273 -7.1250 0.0000 -0.0000 -0.2825 12.8738 0.2125 -0.0000 -0.0000 0.0000 75.0613 37.1129 41.8923 -21.2912 32.1667 -6.2042 0.0000 -0.0000 -8.4357 -17.1826 -30.4232 8.8993 7.1250 -0.0000 -0.0000 16.6373 -60.7866 -6.5051
